<svg viewBox="0 0 24 24" xmlns="http://www.w3.org/2000/svg">
  <path d="M12 0C5.37 0 0 5.37 0 12c0 5.3 3.438 9.8 8.205 11.387.6.113.82-.263.82-.58 0-.287-.01-1.04-.015-2.04-3.338.726-4.042-1.61-4.042-1.61-.546-1.387-1.333-1.756-1.333-1.756-1.09-.745.082-.73.082-.73 1.205.084 1.84 1.237 1.84 1.237 1.07 1.834 2.807 1.304 3.492.997.108-.776.418-1.305.76-1.605-2.665-.303-5.466-1.332-5.466-5.93 0-1.31.468-2.381 1.236-3.22-.124-.303-.536-1.523.117-3.176 0 0 1.008-.322 3.301 1.23.957-.266 1.983-.399 3.003-.404 1.02.005 2.047.138 3.006.404 2.29-1.552 3.297-1.23 3.297-1.23.655 1.653.243 2.873.12 3.176.77.839 1.236 1.909 1.236 3.22 0 4.61-2.807 5.625-5.479 5.921.43.371.823 1.102.823 2.222 0 1.604-.015 2.896-.015 3.286 0 .32.216.698.825.58C20.565 21.796 24 17.297 24 12c0-6.63-5.37-12-12-12z"/>
</svg>
